#Comment line ignore any data following # character 
#Hierarchical Translation and Rotation (.htr) file 
[Header]	
#Header keywords are followed by a single value 
FileType HTR		#Single word string
DataType HTRS		#Translation followed by rotation and scale data
FileVersion 1		#integer
NumSegments 84		#integer
NumFrames 2		#integer
DataFrameRate 30		#integer, data frame rate in this file
EulerRotationOrder ZYX
CalibrationUnits mm
RotationUnits Degrees
GlobalAxisofGravity Y
BoneLengthAxis Y
ScaleFactor 1.00
[SegmentNames&Hierarchy]
#CHILD	PARENT
MASTER GLOBAL
root MASTER
chest root
L_mid_tent01 root
R_mid_tent01 root
spine01 root
Bip01_Neck chest
L_humerus chest
R_humerus chest
weapon_bone chest
Bip01_Head Bip01_Neck
eye_left_bone Bip01_Head
eye_right_bone Bip01_Head
L_forearm L_humerus
L_front_hand L_forearm
L_weapon_bone L_forearm
L_front_hand01_01 L_front_hand
L_front_hand02_01 L_front_hand
L_front_hand03_01 L_front_hand
L_front_hand01_02 L_front_hand01_01
L_front_hand02_02 L_front_hand02_01
L_front_hand03_02 L_front_hand03_01
R_forearm R_humerus
R_front_hand R_forearm
R_weapon_bone R_forearm
R_front_hand01_01 R_front_hand
R_front_hand02_01 R_front_hand
R_front_hand03_01 R_front_hand
R_front_hand01_02 R_front_hand01_01
R_front_hand02_02 R_front_hand02_01
R_front_hand03_02 R_front_hand03_01
null_rope01_connect L_mid_tent01
Rope1_Seg01 null_rope01_connect
Rope1_Seg02 Rope1_Seg01
Rope1_Seg03 Rope1_Seg02
Rope1_Seg04 Rope1_Seg03
Rope1_Seg05 Rope1_Seg04
Rope1_Seg06 Rope1_Seg05
Rope1_Seg07 Rope1_Seg06
Rope1_Seg09 Rope1_Seg07
L_mid_hand01 Rope1_Seg09
L_mid_hand02 Rope1_Seg09
L_mid_hand03 Rope1_Seg09
null_rope02_connect R_mid_tent01
Rope2_Seg01 null_rope02_connect
Rope2_Seg02 Rope2_Seg01
Rope2_Seg03 Rope2_Seg02
Rope2_Seg04 Rope2_Seg03
Rope2_Seg05 Rope2_Seg04
Rope2_Seg06 Rope2_Seg05
Rope2_Seg07 Rope2_Seg06
Rope2_Seg09 Rope2_Seg07
R_mid_hand01 Rope2_Seg09
R_mid_hand02 Rope2_Seg09
R_mid_hand03 Rope2_Seg09
spine02 spine01
spine03 spine02
pelvis spine03
null_rope03_connect pelvis
null_rope04_connect pelvis
Rope3_Seg01 null_rope03_connect
Rope3_Seg02 Rope3_Seg01
Rope3_Seg03 Rope3_Seg02
Rope3_Seg04 Rope3_Seg03
Rope3_Seg05 Rope3_Seg04
Rope3_Seg06 Rope3_Seg05
Rope3_Seg07 Rope3_Seg06
Rope3_Seg08 Rope3_Seg07
Rope3_Seg09 Rope3_Seg08
R_rear_hand01 Rope3_Seg09
R_rear_hand02 Rope3_Seg09
R_rear_hand03 Rope3_Seg09
Rope4_Seg01 null_rope04_connect
Rope4_Seg02 Rope4_Seg01
Rope4_Seg03 Rope4_Seg02
Rope4_Seg04 Rope4_Seg03
Rope4_Seg05 Rope4_Seg04
Rope4_Seg06 Rope4_Seg05
Rope4_Seg07 Rope4_Seg06
Rope4_Seg08 Rope4_Seg07
Rope4_Seg09 Rope4_Seg08
L_rear_hand01 Rope4_Seg09
L_rear_hand02 Rope4_Seg09
L_rear_hand03 Rope4_Seg09
[BasePosition]
#SegmentName Tx, Ty, Tz, Rx, Ry, Rz, BoneLength
MASTER 0.000000 0.000000 0.000000 -90.000000 0.000000 0.000000 10.000000 
root 0.000000 0.000000 0.000000 0.000000 0.000000 0.000000 10.000000 
chest 0.000000 0.000000 0.000000 0.000000 0.000000 0.000000 10.000000 
L_mid_tent01 0.000000 0.000000 0.000000 0.000000 0.000000 0.000000 10.000000 
R_mid_tent01 0.000000 0.000000 0.000000 0.000000 0.000000 0.000000 10.000000 
spine01 0.000000 0.000000 0.000000 0.000000 0.000000 0.000000 10.000000 
Bip01_Neck 0.000000 0.000000 0.000000 0.000000 0.000000 0.000000 10.000000 
L_humerus 0.000000 0.000000 0.000000 0.000000 0.000000 0.000000 10.000000 
R_humerus 0.000000 0.000000 0.000000 0.000000 0.000000 0.000000 10.000000 
weapon_bone 0.000000 0.000000 0.000000 0.000000 0.000000 0.000000 10.000000 
Bip01_Head 0.000000 0.000000 0.000000 0.000000 0.000000 0.000000 10.000000 
eye_left_bone 0.000000 0.000000 0.000000 0.000000 0.000000 0.000000 10.000000 
eye_right_bone 0.000000 0.000000 0.000000 0.000000 0.000000 0.000000 10.000000 
L_forearm 0.000000 0.000000 0.000000 0.000000 0.000000 0.000000 10.000000 
L_front_hand 0.000000 0.000000 0.000000 0.000000 0.000000 0.000000 10.000000 
L_weapon_bone 0.000000 0.000000 0.000000 0.000000 0.000000 0.000000 10.000000 
L_front_hand01_01 0.000000 0.000000 0.000000 0.000000 0.000000 0.000000 10.000000 
L_front_hand02_01 0.000000 0.000000 0.000000 0.000000 0.000000 0.000000 10.000000 
L_front_hand03_01 0.000000 0.000000 0.000000 0.000000 0.000000 0.000000 10.000000 
L_front_hand01_02 0.000000 0.000000 0.000000 0.000000 0.000000 0.000000 10.000000 
L_front_hand02_02 0.000000 0.000000 0.000000 0.000000 0.000000 0.000000 10.000000 
L_front_hand03_02 0.000000 0.000000 0.000000 0.000000 0.000000 0.000000 10.000000 
R_forearm 0.000000 0.000000 0.000000 0.000000 0.000000 0.000000 10.000000 
R_front_hand 0.000000 0.000000 0.000000 0.000000 0.000000 0.000000 10.000000 
R_weapon_bone 0.000000 0.000000 0.000000 0.000000 0.000000 0.000000 10.000000 
R_front_hand01_01 0.000000 0.000000 0.000000 0.000000 0.000000 0.000000 10.000000 
R_front_hand02_01 0.000000 0.000000 0.000000 0.000000 0.000000 0.000000 10.000000 
R_front_hand03_01 0.000000 0.000000 0.000000 0.000000 0.000000 0.000000 10.000000 
R_front_hand01_02 0.000000 0.000000 0.000000 0.000000 0.000000 0.000000 10.000000 
R_front_hand02_02 0.000000 0.000000 0.000000 0.000000 0.000000 0.000000 10.000000 
R_front_hand03_02 0.000000 0.000000 0.000000 0.000000 0.000000 0.000000 10.000000 
null_rope01_connect 0.000000 0.000000 0.000000 0.000000 0.000000 0.000000 10.000000 
Rope1_Seg01 0.000000 0.000000 0.000000 0.000000 0.000000 0.000000 10.000000 
Rope1_Seg02 0.000000 0.000000 0.000000 0.000000 0.000000 0.000000 10.000000 
Rope1_Seg03 0.000000 0.000000 0.000000 0.000000 0.000000 0.000000 10.000000 
Rope1_Seg04 0.000000 0.000000 0.000000 0.000000 0.000000 0.000000 10.000000 
Rope1_Seg05 0.000000 0.000000 0.000000 0.000000 0.000000 0.000000 10.000000 
Rope1_Seg06 0.000000 0.000000 0.000000 0.000000 0.000000 0.000000 10.000000 
Rope1_Seg07 0.000000 0.000000 0.000000 0.000000 0.000000 0.000000 10.000000 
Rope1_Seg09 0.000000 0.000000 0.000000 0.000000 0.000000 0.000000 10.000000 
L_mid_hand01 0.000000 0.000000 0.000000 0.000000 0.000000 0.000000 10.000000 
L_mid_hand02 0.000000 0.000000 0.000000 0.000000 0.000000 0.000000 10.000000 
L_mid_hand03 0.000000 0.000000 0.000000 0.000000 0.000000 0.000000 10.000000 
null_rope02_connect 0.000000 0.000000 0.000000 0.000000 0.000000 0.000000 10.000000 
Rope2_Seg01 0.000000 0.000000 0.000000 0.000000 0.000000 0.000000 10.000000 
Rope2_Seg02 0.000000 0.000000 0.000000 0.000000 0.000000 0.000000 10.000000 
Rope2_Seg03 0.000000 0.000000 0.000000 0.000000 0.000000 0.000000 10.000000 
Rope2_Seg04 0.000000 0.000000 0.000000 0.000000 0.000000 0.000000 10.000000 
Rope2_Seg05 0.000000 0.000000 0.000000 0.000000 0.000000 0.000000 10.000000 
Rope2_Seg06 0.000000 0.000000 0.000000 0.000000 0.000000 0.000000 10.000000 
Rope2_Seg07 0.000000 0.000000 0.000000 0.000000 0.000000 0.000000 10.000000 
Rope2_Seg09 0.000000 0.000000 0.000000 0.000000 0.000000 0.000000 10.000000 
R_mid_hand01 0.000000 0.000000 0.000000 0.000000 0.000000 0.000000 10.000000 
R_mid_hand02 0.000000 0.000000 0.000000 0.000000 0.000000 0.000000 10.000000 
R_mid_hand03 0.000000 0.000000 0.000000 0.000000 0.000000 0.000000 10.000000 
spine02 0.000000 0.000000 0.000000 0.000000 0.000000 0.000000 10.000000 
spine03 0.000000 0.000000 0.000000 0.000000 0.000000 0.000000 10.000000 
pelvis 0.000000 0.000000 0.000000 0.000000 0.000000 0.000000 10.000000 
null_rope03_connect 0.000000 0.000000 0.000000 0.000000 0.000000 0.000000 10.000000 
null_rope04_connect 0.000000 0.000000 0.000000 0.000000 0.000000 0.000000 10.000000 
Rope3_Seg01 0.000000 0.000000 0.000000 0.000000 0.000000 0.000000 10.000000 
Rope3_Seg02 0.000000 0.000000 0.000000 0.000000 0.000000 0.000000 10.000000 
Rope3_Seg03 0.000000 0.000000 0.000000 0.000000 0.000000 0.000000 10.000000 
Rope3_Seg04 0.000000 0.000000 0.000000 0.000000 0.000000 0.000000 10.000000 
Rope3_Seg05 0.000000 0.000000 0.000000 0.000000 0.000000 0.000000 10.000000 
Rope3_Seg06 0.000000 0.000000 0.000000 0.000000 0.000000 0.000000 10.000000 
Rope3_Seg07 0.000000 0.000000 0.000000 0.000000 0.000000 0.000000 10.000000 
Rope3_Seg08 0.000000 0.000000 0.000000 0.000000 0.000000 0.000000 10.000000 
Rope3_Seg09 0.000000 0.000000 0.000000 0.000000 0.000000 0.000000 10.000000 
R_rear_hand01 0.000000 0.000000 0.000000 0.000000 0.000000 0.000000 10.000000 
R_rear_hand02 0.000000 0.000000 0.000000 0.000000 0.000000 0.000000 10.000000 
R_rear_hand03 0.000000 0.000000 0.000000 0.000000 0.000000 0.000000 10.000000 
Rope4_Seg01 0.000000 0.000000 0.000000 0.000000 0.000000 0.000000 10.000000 
Rope4_Seg02 0.000000 0.000000 0.000000 0.000000 0.000000 0.000000 10.000000 
Rope4_Seg03 0.000000 0.000000 0.000000 0.000000 0.000000 0.000000 10.000000 
Rope4_Seg04 0.000000 0.000000 0.000000 0.000000 0.000000 0.000000 10.000000 
Rope4_Seg05 0.000000 0.000000 0.000000 0.000000 0.000000 0.000000 10.000000 
Rope4_Seg06 0.000000 0.000000 0.000000 0.000000 0.000000 0.000000 10.000000 
Rope4_Seg07 0.000000 0.000000 0.000000 0.000000 0.000000 0.000000 10.000000 
Rope4_Seg08 0.000000 0.000000 0.000000 0.000000 0.000000 0.000000 10.000000 
Rope4_Seg09 0.000000 0.000000 0.000000 0.000000 0.000000 0.000000 10.000000 
L_rear_hand01 0.000000 0.000000 0.000000 0.000000 0.000000 0.000000 10.000000 
L_rear_hand02 0.000000 0.000000 0.000000 0.000000 0.000000 0.000000 10.000000 
L_rear_hand03 0.000000 0.000000 0.000000 0.000000 0.000000 0.000000 10.000000 
#Beginning of Data. Separated by tabs
#Fr	Tx	Ty	Tz	Rx	Ry	Rz	SF
[MASTER]
13 -2084.393066 3238.094238 1815.708862 0.001660 0.001660 0.001660 4257.551758
14 -2283.818604 3476.561768 1892.525024 0.001660 0.001660 0.001660 4569.896973
[root]
13 -33.421780 -36.305542 1491.292725 -47.775059 -16.382202 -104.579369 1492.109009
14 -34.888458 -39.834286 1495.017578 -48.398708 -17.033012 -104.414787 1495.955078
[chest]
13 -84.512650 -34.090519 0.000000 24.834713 5.416606 147.269897 91.129311
14 -84.512650 -34.090519 0.000000 25.067751 4.548782 146.797073 91.129311
[L_mid_tent01]
13 27.298931 22.179167 -249.918915 2.434273 18.577894 79.945984 252.381866
14 27.298918 22.179161 -249.918930 1.792589 21.006788 79.241524 252.381882
[R_mid_tent01]
13 23.228794 24.509907 226.238495 158.560623 -40.604935 89.420006 228.744751
14 23.228794 24.509907 226.238495 159.253769 -40.320976 88.230728 228.744751
[spine01]
13 -0.361383 -0.195265 0.000000 0.002059 0.001128 32.565418 0.410763
14 -0.361383 -0.195265 0.000000 0.002057 0.001131 32.395416 0.410763
[Bip01_Neck]
13 165.484543 71.581718 0.000119 176.643677 -1.657967 43.431911 180.302734
14 165.484543 71.581718 0.000119 176.643677 -1.657967 43.431911 180.302734
[L_humerus]
13 -13.983130 -135.272980 -120.471481 -7.088151 63.631927 82.747894 181.680161
14 -13.983130 -135.272980 -120.471481 -7.099333 63.593979 82.730377 181.680161
[R_humerus]
13 -13.983309 -135.273102 125.287651 25.568949 -64.411087 70.160255 184.909012
14 -13.983309 -135.273102 125.287651 25.555712 -64.368950 70.173347 184.909012
[weapon_bone]
13 235.964890 -300.705902 0.000000 0.000000 -89.951546 -128.212341 382.234833
14 235.964890 -300.705902 0.000000 0.000000 -89.951546 -128.212341 382.234833
[Bip01_Head]
13 213.674011 185.076294 20.027313 4.962490 2.797846 -43.898743 283.391815
14 213.666672 185.095520 19.782104 4.440152 -1.457900 -43.897720 283.381592
[eye_left_bone]
13 -24.626970 125.451866 -64.772606 0.000000 -90.000000 -99.840431 143.318359
14 -24.626970 125.451866 -64.772606 0.000000 -90.000000 -99.840431 143.318359
[eye_right_bone]
13 -24.626970 125.451866 64.327362 0.000000 -89.965736 80.156380 143.117676
14 -24.626970 125.451866 64.327362 0.000000 -89.965736 80.156380 143.117676
[L_forearm]
13 322.776093 0.000000 -0.000119 0.000432 -0.002307 -111.188736 322.776093
14 322.776093 0.000000 -0.000119 0.000432 -0.002307 -111.209717 322.776093
[L_front_hand]
13 241.149185 -0.042021 -3.300071 -178.667953 -1.835447 -27.422350 241.171753
14 241.149185 -0.042021 -3.300071 -178.667953 -1.835447 -27.422342 241.171753
[L_weapon_bone]
13 156.183838 0.000000 0.000000 0.000014 0.000007 0.000001 156.183838
14 156.183838 0.000000 0.000000 0.000014 0.000007 0.000001 156.183838
[L_front_hand01_01]
13 86.095154 20.947098 -0.655860 -0.273295 -0.533469 64.985298 88.609184
14 86.095154 20.947098 -0.655860 -0.273650 -0.533287 65.061523 88.609184
[L_front_hand02_01]
13 86.935165 -11.437475 24.513514 140.772385 -54.262844 -45.183468 91.046425
14 86.935165 -11.437475 24.513514 140.858566 -54.305298 -45.287003 91.046425
[L_front_hand03_01]
13 86.637497 -14.123976 -20.424902 -141.183044 52.494118 -47.265888 90.126129
14 86.637497 -14.123976 -20.424902 -141.258987 52.537949 -47.363300 90.126129
[L_front_hand01_02]
13 71.020905 -0.000179 0.000030 0.000315 -0.002326 -105.414528 71.020905
14 71.020905 -0.000179 0.000030 0.000315 -0.002326 -105.409866 71.020905
[L_front_hand02_02]
13 71.020927 -0.000119 0.000060 0.000315 -0.002326 -105.414528 71.020927
14 71.020927 -0.000119 0.000060 0.000315 -0.002326 -105.409866 71.020927
[L_front_hand03_02]
13 71.020905 -0.000060 0.000060 0.000315 -0.002326 -105.414528 71.020905
14 71.020905 -0.000060 0.000060 0.000315 -0.002326 -105.409866 71.020905
[R_forearm]
13 322.776428 -0.000060 0.000030 0.201059 0.068311 -109.855377 322.776428
14 322.776428 -0.000060 0.000030 0.201055 0.068322 -109.861427 322.776428
[R_front_hand]
13 238.847015 -0.006795 2.210259 -2.635298 -10.645461 -26.312506 238.857239
14 238.847015 -0.006795 2.210259 -2.635298 -10.645461 -26.312506 238.857239
[R_weapon_bone]
13 155.664093 0.002503 -0.000030 0.003487 0.001180 -90.988930 155.664078
14 155.664093 0.002503 -0.000030 0.003487 0.001180 -90.988930 155.664078
[R_front_hand01_01]
13 87.624611 14.231146 22.918642 -139.406311 -53.422413 43.599293 91.683487
14 87.624611 14.231146 22.918642 -138.707092 -52.961746 42.720669 91.683487
[R_front_hand02_01]
13 89.356956 14.367283 -19.491137 140.210251 51.852013 46.267590 92.579636
14 89.356956 14.367283 -19.491137 139.537384 51.404167 45.405891 92.579636
[R_front_hand03_01]
13 87.286232 -22.307278 -0.143439 0.071981 -0.448622 -63.915920 90.091743
14 87.286232 -22.307278 -0.143439 0.065057 -0.451640 -63.223511 90.091743
[R_front_hand01_02]
13 71.020905 0.000060 0.000119 0.002323 -0.000334 106.381714 71.020905
14 71.020905 0.000060 0.000119 0.002323 -0.000334 106.381714 71.020905
[R_front_hand02_02]
13 71.020844 -0.000030 -0.000119 0.002323 -0.000334 106.381714 71.020836
14 71.020844 -0.000030 -0.000119 0.002323 -0.000334 106.381714 71.020836
[R_front_hand03_02]
13 71.020905 0.000000 0.000030 0.002323 -0.000334 106.381714 71.020905
14 71.020905 0.000000 0.000030 0.002323 -0.000334 106.381714 71.020905
[null_rope01_connect]
13 328.732483 0.000000 -0.000238 -26.182636 -62.040714 54.154118 328.732483
14 328.732483 0.000000 -0.000238 -30.398006 -64.350754 59.268543 328.732483
[Rope1_Seg01]
13 0.000000 0.000000 0.000000 -43.117733 41.101051 -63.575287 0.000000
14 0.000000 0.000000 0.000000 -93.589920 53.047043 -98.436333 0.000000
[Rope1_Seg02]
13 139.999863 -0.000179 0.000000 -7.573586 3.768719 12.418862 139.999863
14 139.999863 -0.000179 0.000000 -8.960080 -6.499763 20.316151 139.999863
[Rope1_Seg03]
13 139.999924 0.000060 -0.000060 -8.642886 8.039466 25.553526 139.999924
14 139.999924 0.000060 -0.000060 -7.285859 -7.230123 28.918751 139.999924
[Rope1_Seg04]
13 139.999924 -0.000060 -0.000119 12.298501 -39.440926 -17.747263 139.999924
14 139.999924 -0.000060 -0.000119 -0.272698 -45.706566 -5.757331 139.999924
[Rope1_Seg05]
13 139.999832 0.000119 -0.000060 -0.584681 -15.919534 -4.382210 139.999832
14 139.999832 0.000119 -0.000060 -10.558281 -29.155756 -6.551805 139.999832
[Rope1_Seg06]
13 139.999954 0.000119 -0.000060 -0.843733 -5.902721 -1.470311 139.999954
14 139.999954 0.000119 -0.000060 -5.212892 -8.831964 -3.250726 139.999954
[Rope1_Seg07]
13 139.999985 0.000060 0.000000 -0.255719 -1.433490 -0.380935 139.999985
14 139.999985 0.000060 0.000000 -1.429943 -2.068403 -0.986648 139.999985
[Rope1_Seg09]
13 121.602913 0.000119 -0.000089 -89.793175 -1.359789 0.847147 121.602913
14 121.602913 0.000119 -0.000089 -89.793175 -1.359789 0.847147 121.602913
[L_mid_hand01]
13 103.859421 1.038730 8.195221 112.987701 -50.601227 -18.681456 104.187431
14 103.859421 1.038730 8.195221 115.405022 -54.702587 -21.718943 104.187431
[L_mid_hand02]
13 105.572853 -4.139662 -10.864139 -153.018723 36.866009 -49.082401 106.211075
14 105.572853 -4.139662 -10.864139 -156.173538 38.796780 -54.226360 106.211075
[L_mid_hand03]
13 104.641464 17.579376 -3.913581 -11.755013 14.733717 54.618225 106.179977
14 104.641464 17.579376 -3.913581 -10.557026 15.605444 59.191402 106.179977
[null_rope02_connect]
13 328.732849 0.000179 -0.000119 -143.962830 15.664417 -9.557087 328.732849
14 328.732849 0.000179 -0.000119 -143.376175 16.868868 -9.859555 328.732849
[Rope2_Seg01]
13 0.000050 0.000107 0.000000 161.897064 37.578915 -59.198219 0.000118
14 0.000051 0.000103 0.000000 -26.020277 10.959826 -32.334068 0.000115
[Rope2_Seg02]
13 139.999741 -0.000060 -0.000119 7.456911 -5.860013 -1.670852 139.999756
14 139.999741 -0.000060 -0.000119 -102.879555 19.230938 4.797572 139.999756
[Rope2_Seg03]
13 140.000107 0.000030 0.000000 7.470598 -9.604623 -1.462411 140.000107
14 140.000107 0.000030 0.000000 -31.307444 -15.117993 30.874344 140.000107
[Rope2_Seg04]
13 139.999802 0.000000 -0.000060 6.614728 -17.169807 -0.411845 139.999802
14 139.999802 0.000000 -0.000060 -4.994874 -18.936420 13.962523 139.999802
[Rope2_Seg05]
13 139.999985 -0.000060 0.000119 -5.453836 14.427757 -1.178251 139.999985
14 139.999985 -0.000060 0.000119 -0.561536 11.431679 -5.225568 139.999985
[Rope2_Seg06]
13 139.999893 -0.000030 -0.000119 -24.754457 23.254257 0.255354 139.999893
14 139.999893 -0.000030 -0.000119 -3.080754 31.888235 -17.255060 139.999893
[Rope2_Seg07]
13 139.999893 0.000060 -0.000060 -37.831524 11.821943 5.724947 139.999893
14 139.999893 0.000060 -0.000060 169.164124 22.873987 -12.050158 139.999893
[Rope2_Seg09]
13 121.338966 0.000089 -0.000060 33.793236 -1.359788 -0.847141 121.338966
14 121.338966 0.000089 -0.000060 33.793236 -1.359788 -0.847141 121.338966
[R_mid_hand01]
13 104.680779 11.144459 -10.335981 -37.204079 31.906813 37.576260 105.778534
14 104.680779 11.144459 -10.335981 -36.578453 32.644390 38.740570 105.778534
[R_mid_hand02]
13 104.070427 2.443552 8.231699 70.367462 -42.427391 14.067809 104.424065
14 104.070427 2.443552 8.231699 69.973366 -43.581707 14.639650 104.424065
[R_mid_hand03]
13 106.028137 -11.221827 -5.996406 -169.893616 12.226661 -47.211018 106.788818
14 106.028137 -11.221827 -5.996406 -170.161224 12.441347 -48.449886 106.788818
[spine02]
13 129.756927 0.001550 0.000119 0.538614 -4.023778 -15.474613 129.756927
14 129.756927 0.001550 0.000119 0.539668 -4.023637 -15.504617 129.756927
[spine03]
13 78.614204 0.081741 -4.899088 2.000257 3.776486 18.067289 78.766747
14 78.614220 0.081738 -4.899096 2.000918 3.776135 18.087353 78.766762
[pelvis]
13 169.435242 0.051022 0.000000 -0.070433 -0.177696 17.333202 169.435257
14 169.435242 0.051022 0.000000 -0.070464 -0.177683 17.353209 169.435257
[null_rope03_connect]
13 -1.257226 -2.466202 137.391083 -0.099500 -48.543633 59.390587 137.418976
14 -1.257226 -2.466202 137.391083 0.370851 -49.282623 59.562138 137.418976
[null_rope04_connect]
13 -1.259640 -2.480268 -137.844437 -0.099500 -48.543633 59.390587 137.872513
14 -1.259640 -2.480268 -137.844437 0.370851 -49.282623 59.562138 137.872513
[Rope3_Seg01]
13 0.000016 -0.000130 -0.000153 -135.335480 33.059395 -82.004272 0.000201
14 0.000016 -0.000147 -0.000153 -133.321640 22.893696 -81.852287 0.000212
[Rope3_Seg02]
13 139.999924 -0.000119 0.000060 0.764694 -5.580899 -11.229308 139.999924
14 139.999924 -0.000119 0.000060 1.208592 -8.783155 -14.594723 139.999924
[Rope3_Seg03]
13 139.999924 -0.000119 0.000119 0.343409 -4.879940 -10.208969 139.999924
14 139.999924 -0.000119 0.000119 0.374838 -6.127838 -11.767177 139.999924
[Rope3_Seg04]
13 139.999924 0.000119 0.000000 -0.349179 -3.891897 -9.970450 139.999924
14 139.999924 0.000119 0.000000 -0.313881 -3.603463 -7.614243 139.999924
[Rope3_Seg05]
13 139.999924 -0.000238 0.000060 0.339042 -2.403715 -3.107473 139.999924
14 139.999924 -0.000238 0.000060 1.533375 -4.142779 -2.385109 139.999924
[Rope3_Seg06]
13 139.999893 -0.000119 -0.000060 1.995418 -2.462367 2.551522 139.999893
14 139.999893 -0.000119 -0.000060 4.984058 -7.540039 0.382475 139.999893
[Rope3_Seg07]
13 139.999771 0.000060 -0.000119 2.633251 -3.565398 3.572956 139.999771
14 139.999771 0.000060 -0.000119 6.881173 -9.393283 -0.574278 139.999771
[Rope3_Seg08]
13 139.999985 -0.000060 0.000000 2.487273 -3.957208 2.271992 139.999985
14 139.999985 -0.000060 0.000000 8.315928 -9.244221 0.173912 139.999985
[Rope3_Seg09]
13 90.185997 -0.000179 -0.000060 89.793228 -1.359877 -0.847183 90.185997
14 90.185997 -0.000179 -0.000060 89.793228 -1.359877 -0.847183 90.185997
[R_rear_hand01]
13 103.366196 -6.073594 -10.757982 -165.129318 19.906286 -41.459824 104.101845
14 103.366196 -6.073594 -10.757982 -166.165070 20.624767 -44.436901 104.101845
[R_rear_hand02]
13 100.509819 12.039542 -7.992327 -30.361929 25.330688 39.162518 101.543350
14 100.509819 12.039542 -7.992327 -29.134808 26.762827 41.953499 101.543350
[R_rear_hand03]
13 101.539970 5.215704 5.435467 82.326164 -42.112484 9.027008 101.819031
14 101.539970 5.215704 5.435467 81.948593 -44.972103 9.574173 101.819031
[Rope4_Seg01]
13 0.000004 -0.000393 -0.000153 58.619690 17.562969 -64.116241 0.000422
14 0.000003 -0.000422 -0.000153 56.553337 18.497524 -76.272934 0.000449
[Rope4_Seg02]
13 139.999985 0.000060 0.000119 10.344664 3.050524 -13.670938 139.999985
14 139.999985 0.000060 0.000119 7.211500 8.721375 -10.612661 139.999985
[Rope4_Seg03]
13 139.999924 0.000000 -0.000238 4.587234 -1.244011 -8.033935 139.999924
14 139.999924 0.000000 -0.000238 3.553222 0.926385 -6.162846 139.999924
[Rope4_Seg04]
13 139.999985 0.000000 0.000119 1.801343 -0.881173 -3.653389 139.999985
14 139.999985 0.000000 0.000119 1.333645 1.083029 -1.954437 139.999985
[Rope4_Seg05]
13 139.999802 -0.000060 -0.000119 0.294579 1.721806 0.401786 139.999802
14 139.999802 -0.000060 -0.000119 0.827837 3.733198 0.449260 139.999802
[Rope4_Seg06]
13 139.999924 0.000000 0.000060 -1.017534 6.346916 5.044058 139.999924
14 139.999924 0.000000 0.000060 2.024012 12.714441 4.204660 139.999924
[Rope4_Seg07]
13 139.999802 0.000000 0.000000 -4.368496 13.414011 11.329254 139.999802
14 139.999802 0.000000 0.000000 17.025545 26.205465 6.635225 139.999802
[Rope4_Seg08]
13 139.999924 0.000000 0.000119 -19.901037 14.361902 13.867925 139.999924
14 139.999924 0.000000 0.000119 121.355278 29.517815 -1.648451 139.999924
[Rope4_Seg09]
13 90.185791 0.000060 0.000060 -135.617828 2.228885 0.850567 90.185791
14 90.185791 0.000060 0.000060 -135.617828 2.228885 0.850567 90.185791
[L_rear_hand01]
13 101.696655 -8.392275 -7.654577 -23.837065 -31.497852 127.196877 102.329041
14 101.696655 -8.392275 -7.654577 -21.399752 -33.105400 122.636459 102.329041
[L_rear_hand02]
13 102.726799 -1.568258 5.773216 79.940979 55.428272 167.825531 102.900848
14 102.726799 -1.568258 5.773216 78.723900 59.531788 166.383713 102.900848
[L_rear_hand03]
13 104.552910 9.721220 -10.420293 -170.300186 -22.788525 -124.407036 105.519653
14 104.552910 9.721220 -10.420293 -172.062332 -23.429153 -119.922249 105.519653
